<svg width="1038.48349" height="784.40632" xmlns="http://www.w3.org/2000/svg">
 <title>a_moment_to_relax</title>
 <defs>
  <filter id="svg_19_blur" x="-50%" y="-50%" width="200%" height="200%">
   <feGaussianBlur stdDeviation="0.6"/>
  </filter>
 </defs>
 <g stroke="null">
  <title>background</title>
  <rect x="-1" y="-1" width="1040.48349" height="786.40632" id="canvas_background" fill="none" stroke="null"/>
 </g>
 <g stroke="null">
  <title>Layer 1</title>
  <path d="m267.4835,691.97896s5,-21 40,-14s40,14 40,14l-80,0z" fill="#3f3d56" id="svg_1" stroke="null"/>
  <path d="m910.374671,683.709885s5,-21 40,-14s40,14 40,14l-80,0z" fill="#3f3d56" id="svg_2" stroke="null"/>
  <path d="m387.4835,691.97896s-28,-17 -40,0l40,0z" fill="#3f3d56" id="svg_3" stroke="null"/>
  <path d="m256.9835,643.97896s-28,-17 -40,0l40,0z" fill="#3f3d56" id="svg_4" stroke="null"/>
  <path transform="rotate(12.691489219665527 949.3115234374994,645.5408325195308) " d="m938.377051,651.43686c8.33613,15.45972 26.0284,22.09625 26.0284,22.09625s4.17672,-18.42864 -4.15941,-33.88837s-26.02841,-22.09625 -26.02841,-22.09625s-4.17672,18.42864 4.15942,33.88837z" fill="#3f3d56" id="svg_5" stroke="null"/>
  <path d="m917.183466,646.35072c15.05015,9.05467 20.84644,27.03974 20.84644,27.03974s-18.60483,3.30455 -33.655,-5.75012s-20.84644,-27.03975 -20.84644,-27.03975s18.60484,-3.30455 33.655,5.75013z" fill="#6c63ff" id="svg_6" stroke="null"/>
  <path d="m247.60435,766.97949s5,-21 40,-14s40,14 40,14l-80,0z" fill="#3f3d56" id="svg_7" stroke="null"/>
  <path d="m862.079725,680.320225q-36.47626,-5.71032 -70.14289,-9.71417l8.64289,-17.28583c-3,-1 -16,9 -16,9l11,-50c-15,2 -22,53 -22,53l-17,-17l8.36834,19.24713c-68.68127,-7.21667 -127.94677,-9.46881 -177.7658,-8.95227l7.39746,-14.79486c-3,-1 -16,9 -16,9l11,-50c-15,2 -22,53 -22,53l-17,-17l8.8634,20.38586a997.84838,997.84838 0 0 0 -102.02258,8.21589c7.38153,-22.99579 33.15918,-45.10175 33.15918,-45.10175c-19.82056,6.16638 -30.13214,16.2124 -35.4693,25.5246a401.561,401.561 0 0 1 21.4693,-139.0246s-40,90 -34,150l0.76129,10.65808c-34.79938,5.42877 -52.26129,10.84192 -52.26129,10.84192l471,0z" fill="#3f3d56" id="svg_8" stroke="null"/>
  <path d="m759.73452,784.35424s184,-27 298,0" fill="#3f3d56" id="svg_9" stroke="null"/>
  <path d="m319.9835,774.47896s184,-27 298,0" fill="#3f3d56" id="svg_10" stroke="null"/>
  <path d="m660.9835,784.40632s108.97986,-27.63867 176.5,0" fill="#3f3d56" id="svg_11" stroke="null"/>
  <rect x="786.531719" y="1347.70447" width="2.00072" height="98.35141" transform="rotate(-42.93967819213867 787.5321044921874,1396.880126953125) " fill="#3f3d56" id="svg_14" stroke="null"/>
  <path d="m326.70061,365.909c0,123.61 -73.4842,166.77 -164.13156,166.77s-164.13156,-43.16 -164.13156,-166.77s164.13156,-280.86149 164.13156,-280.86149s164.13156,157.25146 164.13156,280.86149z" fill="#f2f2f2" id="svg_24" stroke="null"/>
  <polygon points="158.153 527.833 159.833 424.383 229.79 296.4 160.097 408.154 160.852 361.639 209.067 269.044 161.052 349.329 161.052 349.329 162.412 265.669 214.04 191.952 162.625 252.514 163.474 99.11 158.138 302.188 158.576 293.811 106.085 213.464 157.735 309.893 152.844 403.327 152.698 400.847 92.185 316.294 152.515 409.608 151.903 421.293 151.794 421.469 151.844 422.428 139.435 659.478 156.014 659.478 158.003 537.037 218.185 443.952 158.153 527.833" fill="#3f3d56" id="svg_25" stroke="null"/>
  <path d="m507.16731,560.61694l9.13712,28.28158s-8.26692,26.54119 -4.351,56.12808s1.74041,30.45709 1.74041,30.45709s-39.12624,-2.25247 -35.21033,9.49527s42.17195,4.86308 42.17195,4.86308s7.34724,-1.97822 10.82805,-22.86308s12.23232,-61.11148 12.23232,-61.11148l-8.22935,-37.9749l-28.31917,-7.27564z" fill="#ffb8b8" id="svg_28" stroke="null"/>
  <path d="m510.21302,502.74846s-16.53386,6.09142 -16.53386,22.62527s6.09142,39.15912 10.00734,40.46442s30.022,19.14446 34.8081,6.52652s-28.28158,-69.61621 -28.28158,-69.61621z" fill="#6c63ff" id="svg_29" stroke="null"/>
  <polygon points="648.575 698.544 683.383 697.239 709.925 693.323 702.093 719.429 637.698 721.169 648.575 698.544" fill="#ffb8b8" id="svg_30" stroke="null"/>
  <path d="m698.6119,702.02487s-0.4351,-9.57223 -4.351,-9.13712s-1.3053,-3.48081 2.17551,-4.351s13.48814,-5.22121 13.48814,-5.22121l39.5942,2.61062s25.671,22.62527 15.22855,34.80811s-37.41871,1.30531 -37.41871,1.30531l-29.15179,0.4351s-9.57223,-15.66369 0.4351,-20.44981z" fill="#2f2e41" id="svg_31" stroke="null"/>
  <polygon points="714.276 668.522 726.893 727.696 753 722.475 738.206 648.507 722.542 640.24 714.276 668.522" fill="#ffb8b8" id="svg_32" stroke="null"/>
  <path d="m564.16558,661.12535s-73.097,33.0677 -42.20483,66.5705c0,0 0,15.66365 32.6326,12.61794s95.7223,-8.702 98.768,-6.96162s12.61794,-34.373 4.351,-36.11341s-18.27426,-3.91591 -18.27426,-3.91591s8.702,-1.30531 8.702,-8.702c0,0 24.80078,-1.74041 32.1975,-17.404s14.35835,-27.41139 14.35835,-27.41139l16.96895,43.51014s19.57956,-36.11342 34.373,-20.01467c0,0 -16.53385,-103.98922 -29.15179,-113.56145s-21.32,-12.61794 -33.0677,-3.91591s-22.62527,30.8922 -22.62527,30.8922l-97.02755,84.40958z" fill="#2f2e41" id="svg_33" stroke="null"/>
  <path d="m738.64122,709.8567a98.03831,98.03831 0 0 0 -8.702,7.39672c-3.48081,3.48081 -8.26692,1.74041 -8.702,0s-8.26693,1.30531 -9.13713,13.92324s-6.09142,23.93058 7.83182,27.84649s13.48815,15.22855 13.48815,15.22855a46.93427,46.93427 0 0 0 35.2432,2.1755c19.57956,-6.52652 12.61794,-13.48814 12.61794,-13.48814l-26.10608,-43.075s-6.96167,-13.05307 -16.5339,-10.00736z" fill="#2f2e41" id="svg_34" stroke="null"/>
  <path d="m666.4144,494.04643s41.76973,14.35835 46.12074,17.40406s23.93057,17.404 14.35835,24.80077s-17.40406,12.18284 -36.11342,6.52652s-39.59422,-23.06037 -39.59422,-23.06037l15.22855,-25.67098z" fill="#ffb8b8" id="svg_35" stroke="null"/>
  <path d="m624.64467,474.90197s16.53385,-3.04571 28.28159,3.48081s21.75506,19.57956 21.75506,19.57956s-10.87753,23.06038 -18.70935,26.54119s-22.19022,-13.92325 -22.19022,-13.92325l-9.13708,-35.67831z" fill="#6c63ff" id="svg_36" stroke="null"/>
  <path d="m548.50193,462.28403s0.43511,16.969 -1.3053,18.70936s20.88486,53.08237 45.68564,30.4571s5.65632,-31.7624 5.65632,-31.7624s-9.13713,-16.969 -8.702,-18.70936s-40.46442,0 -40.46442,0l-0.87024,1.3053z" fill="#ffb8b8" id="svg_37" stroke="null"/>
  <path d="m548.50193,462.28403s0.43511,16.969 -1.3053,18.70936s20.88486,53.08237 45.68564,30.4571s5.65632,-31.7624 5.65632,-31.7624s-9.13713,-16.969 -8.702,-18.70936s-40.46442,0 -40.46442,0l-0.87024,1.3053z" opacity="0.1" id="svg_38" stroke="null"/>
  <path d="m555.46356,494.91663s16.53385,11.31264 23.49547,8.702s15.66365,-13.92324 16.53385,-14.79344s45.25054,88.32557 45.25054,88.32557s-6.52652,32.6326 -23.93057,42.20483s-17.18651,17.1865 -19.362,23.713s-30.23955,-20.66731 -30.23955,-20.66731l-17.83915,-75.70764l0,-46.12069l6.09141,-5.65632z" fill="#6c63ff" id="svg_39" stroke="null"/>
  <path d="m548.28438,474.68442s-5.43876,-1.08775 -11.09508,3.69836s-32.1975,22.62527 -30.8922,24.36568s13.053,26.54118 15.66365,36.54851s6.52652,11.31264 6.52652,11.31264s9.13713,6.52652 7.83183,11.31263s-6.96163,70.05132 0.8702,84.40966s6.52652,26.97629 4.351,30.4571s20.88487,-10.00733 20.88487,-10.00733s34.373,-27.84649 36.98361,-36.11342a97.26279,97.26279 0 0 0 3.48081,-17.404s-22.19017,-87.89047 -29.15179,-92.67659s-25.45342,-45.90324 -25.45342,-45.90324z" fill="#575a89" id="svg_40" stroke="null"/>
  <path d="m596.08437,475.02853s10.72114,-6.65308 12.89665,-4.91267s22.62527,1.7404 23.06037,3.48081s1.30531,43.51013 16.09875,54.38767s5.22122,32.6326 5.22122,32.6326l10.87753,17.404s-59.17285,56.99363 -55.25787,37.41872c0.21755,-1.08776 0,-1.30531 0,-1.30531s-23.06037,-98.768 -20.01466,-103.98922s8.57969,-28.89863 7.11801,-35.1166z" fill="#575a89" id="svg_41" stroke="null"/>
  <path d="m687.29926,514.9313l-59.17378,20.44976s-58.73868,13.92324 -49.60155,30.022s47.86114,-11.31263 47.86114,-11.31263l78.7996,-8.8291s31.28108,-26.41412 -17.88541,-30.33003z" fill="#ffb8b8" id="svg_42" stroke="null"/>
  <circle cx="571.9974" cy="446.18528" r="32.1975" fill="#ffb8b8" id="svg_43" stroke="null"/>
  <path d="m546.35644,414.18654l-5.95587,-2.16578s12.45312,-12.45312 29.77935,-11.37019l-4.87311,-4.873s11.91174,-4.33147 22.74055,7.03872c5.69249,5.97708 12.27878,13.00279 16.38465,20.9172l6.37832,0l-2.66207,5.32414l9.31725,5.32415l-9.56325,-0.95636a26.866,26.866 0 0 1 -0.90453,13.789l-2.16569,5.95578s-8.66311,-17.32606 -8.66311,-19.49184l0,5.41441s-5.95587,-4.87294 -5.95587,-8.12157l-3.24863,3.79009l-1.62431,-5.95587l-20.03331,5.95587l3.24863,-4.87294l-12.45312,1.62432l4.8731,-5.95587s-14.07744,7.03872 -14.619,12.99458c-0.54138,5.95579 -7.58,13.536 -7.58,13.536l-3.24863,-5.4144s-4.8731,-24.36488 10.82865,-32.48644z" fill="#2f2e41" id="svg_44" stroke="null"/>
  <circle cx="162.854007" cy="115.274636" r="15.781405" fill="#6c63ff" id="svg_19" stroke="null" filter="url(#svg_19_blur)"/>
  <circle cx="101.353806" cy="333.91546" r="10" fill="#3f3d56" id="svg_17" stroke="null"/>
  <circle cx="210.353806" cy="199.102626" r="10" fill="#6c63ff" id="svg_16" stroke="null"/>
  <circle cx="209.103588" cy="271.226868" r="10" fill="#3f3d56" id="svg_22" stroke="null"/>
  <circle cx="209.729279" cy="460.589217" r="15.781405" fill="#6c63ff" id="svg_46" stroke="null"/>
  <circle cx="105.665627" cy="217.852741" r="10" fill="#6c63ff" id="svg_48" stroke="null"/>
  <circle cx="229.729308" cy="311.102768" r="10" fill="#3f3d56" id="svg_50" stroke="null"/>
  <path fill="#3f3d56" stroke="null" stroke-width="null" stroke-opacity="null" fill-opacity="null" d="m-179.23851,397.07268c-1.07725,-0.04717 1.68733,-0.04843 1.253,-0.10072c0.7941,-0.06928 2.85885,-0.11122 3.16292,-0.18995c-0.83742,-0.02188 -1.31905,-0.0748 0.27861,-0.06851c1.17162,-0.03308 1.02519,-0.10077 1.37754,-0.15044c0.33006,-0.08018 0.4048,-0.16132 0.54658,-0.24216c-1.35564,-0.0039 -2.74482,-0.00118 -4.06572,-0.01421c0.038,-0.05376 2.72572,-0.03313 2.84805,-0.08385c1.95422,-0.00133 0.10824,-0.1108 -0.68759,-0.13692c-1.01866,-0.04406 -1.69714,-0.11362 -0.92274,-0.16803c1.10764,-0.02761 3.61211,-0.0108 3.4989,-0.08334c-0.75329,-0.01611 -1.7097,-0.00588 -2.55399,-0.00873c0.05192,-0.03382 0.10384,-0.06765 0.15577,-0.10147c1.11656,-0.00322 2.23312,-0.00644 3.34969,-0.00967c-0.56675,-0.02209 -1.41496,-0.03835 -1.62722,-0.0696c0.72197,-0.04451 2.46194,-0.04058 3.70844,-0.04016c1.21208,-0.00314 3.42201,0.02719 1.76987,0.07603c-0.13391,0.01199 -1.43714,0.04182 -0.63176,0.03857c1.03118,0 2.06237,0 3.09355,0c-0.00296,0.03306 -0.02666,0.06646 0.18039,0.09882c-0.78714,0.02198 -3.33961,-0.01878 -2.61284,0.04905c0.81834,0.02837 2.07165,0.02762 3.10961,0.04011c0.60541,0.00227 1.08703,0.00819 0.86885,0.03473c0.1138,0.04928 -0.2177,0.09885 -1.12085,0.13626c-0.63932,0.03903 -2.07522,0.0879 -1.65015,0.13308c0.80423,-0.00491 1.45026,0.0149 0.80792,0.03717c0.6592,0.01831 2.98048,0.01412 2.47842,0.05994c-1.17608,0.01461 -2.43949,0.00852 -3.65966,0.01001c0.32488,0.1251 0.77409,0.25021 1.5247,0.37272c0.43856,0.02718 2.18072,0.04807 0.75095,0.08351c-0.53359,0.066 1.17072,0.11541 2.2411,0.15777c1.17687,0.03306 0.60588,0.09958 2.27081,0.11019c1.3112,0.04764 -1.80019,0.04637 -2.599,0.04647c-5.28825,0.00214 -10.5822,0.00513 -15.86838,-0.00126c-0.43274,-0.00205 -0.96737,-0.00158 -1.27577,-0.01541l0,0z" id="svg_53"/>
  <path fill="#3f3d56" stroke="null" stroke-width="null" stroke-opacity="null" fill-opacity="null" d="m-109.50894,216.8021c-0.08287,-0.04956 0.12979,-0.05088 0.09638,-0.10581c0.06109,-0.07279 0.21992,-0.11685 0.24331,-0.19956c-0.06442,-0.02299 -0.10147,-0.07858 0.02143,-0.07198c0.09012,-0.03475 0.07886,-0.10586 0.10596,-0.15805c0.02539,-0.08423 0.03114,-0.16948 0.04205,-0.2544c-0.10428,-0.0041 -0.21114,-0.00124 -0.31275,-0.01493c0.00292,-0.05648 0.20967,-0.03481 0.21908,-0.0881c0.15033,-0.00139 0.00833,-0.1164 -0.05289,-0.14384c-0.07836,-0.04629 -0.13055,-0.11936 -0.07098,-0.17653c0.0852,-0.029 0.27785,-0.01135 0.26915,-0.08755c-0.05795,-0.01692 -0.13152,-0.00618 -0.19647,-0.00917c0.004,-0.03553 0.00799,-0.07107 0.01199,-0.1066c0.08589,-0.00339 0.17178,-0.00677 0.25767,-0.01016c-0.0436,-0.02321 -0.10885,-0.04029 -0.12517,-0.07312c0.05553,-0.04676 0.18938,-0.04263 0.28526,-0.04219c0.09324,-0.0033 0.26324,0.02856 0.13615,0.07987c-0.0103,0.0126 -0.11055,0.04394 -0.0486,0.04052c0.07932,0 0.15865,0 0.23797,0c-0.00023,0.03474 -0.00205,0.06982 0.01387,0.10382c-0.06054,0.0231 -0.25689,-0.01973 -0.20099,0.05154c0.06296,0.02979 0.15936,0.02901 0.23921,0.04213c0.04657,0.00238 0.08362,0.0086 0.06683,0.03648c0.00876,0.05178 -0.01674,0.10386 -0.08622,0.14316c-0.04918,0.04101 -0.15963,0.09234 -0.12693,0.13981c0.06186,-0.00516 0.11156,0.01565 0.06215,0.03905c0.0507,0.01923 0.22927,0.01483 0.19064,0.06297c-0.09046,0.01534 -0.18765,0.00895 -0.28151,0.01052c0.02499,0.13142 0.05955,0.26286 0.11728,0.39156c0.03374,0.02856 0.16775,0.05051 0.05777,0.08774c-0.04105,0.06934 0.09006,0.12125 0.17239,0.16575c0.09053,0.03473 0.04661,0.10461 0.17468,0.11576c0.10087,0.05005 -0.13847,0.04871 -0.19992,0.04882c-0.40679,0.00225 -0.81402,0.00539 -1.22066,-0.00132c-0.03328,-0.00215 -0.07441,-0.00166 -0.09813,-0.01619l0,0z" id="svg_54"/>
  <path d="m94.9835,664.47896s5,-21 40,-14s40,14 40,14l-80,0z" fill="#3f3d56" id="svg_15" stroke="null"/>
  <path d="m105.63849,619.42743c15.05015,9.05467 20.84644,27.03974 20.84644,27.03974s-18.60483,3.30455 -33.655,-5.75012s-20.84644,-27.03975 -20.84644,-27.03975s18.60484,-3.30455 33.655,5.75013z" fill="#6c63ff" id="svg_18" stroke="null"/>
  <path d="m99.90875,628.35975c8.33613,15.45972 26.0284,22.09625 26.0284,22.09625s4.17672,-18.42864 -4.15941,-33.88837s-26.02841,-22.09625 -26.02841,-22.09625s-4.17672,18.42864 4.15942,33.88837z" fill="#3f3d56" id="svg_20" stroke="null"/>
  <path d="m926.83849,655.283044c8.33613,15.45972 26.0284,22.09625 26.0284,22.09625s4.17672,-18.42864 -4.15941,-33.88837s-26.02841,-22.09625 -26.02841,-22.09625s-4.17672,18.42864 4.15942,33.88837z" fill="#3f3d56" id="svg_21" stroke="null"/>
 </g>
</svg>